<svg width="21" height="20" viewBox="0 0 21 20" fill="none" xmlns="http://www.w3.org/2000/svg">
<g id="Huge-icon/ecommerce/outline/deposit">
<path id="Vector" d="M15.3336 9.16667L15.3336 5.83333L5.33358 5.83333V15.8333C5.33358 16.7538 6.07977 17.5 7.00024 17.5H13.6669C14.5874 17.5 15.3336 16.7538 15.3336 15.8333V9.16667ZM15.3336 9.16667C17.1745 9.16667 18.6669 7.67428 18.6669 5.83333C18.6669 3.99239 17.1745 2.5 15.3336 2.5H5.33358C3.49263 2.5 2.00024 3.99238 2.00024 5.83333C2.00024 7.67428 3.49263 9.16667 5.33358 9.16667" stroke="white" stroke-linejoin="round"/>
<path id="Vector_2" d="M12.0001 10.4882L10.9227 9.41083C10.5972 9.08539 10.0696 9.08539 9.74416 9.41083L8.66675 10.4882M10.3334 13.8216V9.6549" stroke="white" stroke-linecap="round"/>
</g>
</svg>
